<?xml version="1.0" encoding="utf-8"?>
<!-- Generator: Adobe Illustrator 16.0.0, SVG Export Plug-In . SVG Version: 6.00 Build 0)  -->
<!DOCTYPE svg PUBLIC "-//W3C//DTD SVG 1.1//EN" "http://www.w3.org/Graphics/SVG/1.1/DTD/svg11.dtd">
<svg version="1.1" id="Calque_1" xmlns="http://www.w3.org/2000/svg" xmlns:xlink="http://www.w3.org/1999/xlink" x="0px" y="0px"
	 width="158.52px" height="154.914px" viewBox="0 0 158.52 154.914" enable-background="new 0 0 158.52 154.914"
	 xml:space="preserve">
<g>
	<g>
		<path fill="#1A1918" d="M150.22,113.319l8.3,0.046c0,0-15.429,20.906-16.688,22.609c-0.409,0.552-1.031,1.147-1.346,1.885
			c-0.796,1.854-1.616,5.922-1.616,5.922l-7.591,0.038c0,0,1.18-4.24,1.131-6.498c-0.042-1.974-1.05-3.943-1.614-5.922
			c-0.57-2.003-1.346-5.922-1.346-5.922h7.806l1.076,4.307L150.22,113.319"/>
		<path fill="#1A1918" d="M134.507,117.729c1.532,0.923,2.472,6.017,2.472,6.017s-8.013,0.117-12.374,0.117h-3.769l-4.576,19.919
			h-6.999c0,0,4.355-21.646,5.385-25.571c0.333-1.271,2.283-1.053,5.573-1.053h5.258
			C128.871,117.157,132.838,116.725,134.507,117.729"/>
		<path fill="#1A1918" d="M101.927,127.43c0,0,0.218-1.279-0.74-2.76c-0.818-1.263-1.573-1.556-3.728-1.623
			c-6.081-0.19-5.963,4.315-5.963,4.315L101.927,127.43L101.927,127.43z M108.521,122.269c0.891,3.214-0.808,10.768-0.808,10.768
			s-8.87-0.148-13.728,0c-1.51,0.046-3.318-0.164-3.768,0.538c-0.634,0.984,0.23,2.501,0.963,3.141
			c0.842,0.738,2.483,0.822,3.073,0.896c3.943,0.501,12.197,0.13,12.197,0.13l-1.43,6.331c0,0-11.663,0.583-17.496-0.808
			c-1.152-0.274-2.231-0.829-2.961-1.616c-0.198-0.215-0.372-0.508-0.561-0.762c-0.151-0.2-0.59-0.865-0.786-1.391
			c-1.332-3.552,0.157-10.353,1.614-13.997c0.171-0.423,0.384-0.958,0.606-1.413c0.28-0.568,0.517-1.209,0.74-1.548
			c0.151-0.233,0.337-0.385,0.494-0.606c0.181-0.26,0.389-0.514,0.583-0.738c0.538-0.625,1.149-1.066,1.885-1.616
			c2.43-1.819,6.828-3.232,12.112-2.691c1.988,0.205,4.993,0.915,6.46,2.961C108.107,120.393,108.301,121.478,108.521,122.269
			L108.521,122.269L108.521,122.269z"/>
		<path fill="#1A1918" d="M76.422,117.133l6.786-0.041c0,0-3.781,17.941-5.708,26.689h-7.806c-5.457,0-10.315,0.676-12.382-3.23
			c-2.005-3.792-0.091-10.029,0.808-14.266c0.635-2.998,1.973-9.128,1.973-9.128l7.031-0.065c0,0-1.987,9.543-2.813,14.308
			c-0.296,1.706-0.907,3.313-0.269,4.575c0.605,1.201,1.453,1.287,4.037,1.347c0.818,0.019,3.499,0,3.499,0L76.422,117.133"/>
		<path fill="#1A1918" d="M44.661,130.054c0.71-2.525,1.747-5.263,1.615-7.537c-0.143-2.434-2.183-4.648-3.5-5.114
			c-3.964-1.399-7.676,0.558-9.151,2.153c-1.909,2.067-2.555,4.482-3.23,7.807c-0.503,2.468-0.915,5.073,0,6.998
			c1.62,3.402,6.672,2.659,12.113,2.691C43.314,134.888,43.982,132.457,44.661,130.054L44.661,130.054L44.661,130.054z
			 M54.082,120.094c0.775,5.637-2.199,11.857-4.247,17.267c2.088,0.189,3.918-0.028,4.051,0.127c0.137,0.202-1.4,6.458-1.936,6.474
			c-1.657,0.043-7.151,0.089-9.442,0.089c-7.475,0-14.468,0.487-18.034-3.229c-1.448-1.51-2.45-4.099-2.692-5.921
			c-0.404-3.043,0.102-6.391,0.807-9.153c0.638-2.492,1.456-4.845,2.692-6.998c3.141-5.482,8.605-9.553,17.765-8.613
			c1.777,0.183,4.329,0.961,5.922,1.885c0.11,0.065,0.496,0.371,0.584,0.425C51.705,113.814,53.667,117.085,54.082,120.094
			L54.082,120.094L54.082,120.094z"/>
		<path fill="#1A1918" d="M21.009,117.165c-0.452,2.06-0.904,4.393-1.381,6.429h-7.537c0.584-2.256,1.031-4.498,1.615-6.461
			C16.118,117.133,18.36,117.165,21.009,117.165"/>
		<path fill="#1A1918" d="M11.822,125.478h7.268c-0.95,5.26-2.831,13.744-4.307,19.649c-0.923,3.696-1.54,6.393-4.038,8.345
			c-0.224,0.174-0.353,0.092-0.538,0.269c-0.46,0.438-2.589,0.948-3.769,1.076c-1.917,0.208-4.083,0.027-6.438-0.021
			c0.616-2.253,1.314-4.958,1.863-6.978c5.741,0.695,5.887-4.731,6.999-9.959C9.504,134.839,11.454,126.688,11.822,125.478"/>
		<g transform="translate(0.000000, 8.827586)">
			<path fill="#21609B" d="M124.505,64.133l-0.444,1.151c-7.569,14.736-20.978,23.777-40.104,24.176
				c-8.941,0.186-17.461-2.109-23.026-4.604c-12.01-5.396-22.112-15.403-27.629-26.096c-7.914-15.326-9.341-36.648,7.114-52.574
				c0.254,0-1.996,3.454-1.742,3.454l-0.453,1.474c-11.858,37.124,24.675,68.938,60.188,65.3
				C106.944,75.539,117.827,70.863,124.505,64.133"/>
			<path fill="#21609B" d="M103.013,48.782c8.935,0.062,18.269-4.115,23.794-9.977c-4.835,12.273-18.833,20.161-37.608,17.652
				C73.48,54.354,58.507,38.535,56.963,22.687c-1.127-11.535,2.894-18.42,9.518-26.771c-2.302,4.368-3.163,7.737-3.377,9.885
				C60.587,30.753,83.036,48.651,103.013,48.782"/>
			<path fill="#21609B" d="M125.909,17.79c-1.39,3.186-9.387,9.202-12.917,9.954c-13.983,2.979-22.94-3.653-27.631-11.198
				c-0.698-1.128-1.987-4.205-2.219-4.988C81.324,5.372,82.16-3.984,87.588-8.828c-1.635,4.605-1.874,9.955-1.014,13.431
				c0.521,2.104,2.11,5.773,3.699,8.082c2.893,4.206,4.728,5.228,8.442,7.461c1.674,1.005,3.469,1.811,4.244,2.033
				C106.482,23.216,113.92,25.949,125.909,17.79"/>
		</g>
	</g>
</g>
</svg>
