<svg id="Layer_1" data-name="Layer 1" xmlns="http://www.w3.org/2000/svg" xmlns:xlink="http://www.w3.org/1999/xlink" viewBox="0 0 256 214"><defs><style>.cls-1,.cls-2,.cls-3,.cls-4{fill-rule:evenodd;}.cls-1{fill:url(#radial-gradient);}.cls-2{fill:url(#linear-gradient);}.cls-3{fill:url(#radial-gradient-2);}.cls-4{fill:#231f20;}</style><radialGradient id="radial-gradient" cx="10156.88" cy="7302.51" r="169.76" gradientTransform="translate(-937.68 -754.26) scale(0.11)" gradientUnits="userSpaceOnUse"><stop offset="0" stop-color="#efeeee"/><stop offset="1" stop-color="#b2bac1"/></radialGradient><linearGradient id="linear-gradient" x1="9762.37" y1="8192.44" x2="10499.18" y2="8192.44" gradientTransform="translate(-937.68 -754.26) scale(0.11)" gradientUnits="userSpaceOnUse"><stop offset="0" stop-color="#b2bac1"/><stop offset="1" stop-color="#efeeee"/></linearGradient><radialGradient id="radial-gradient-2" cx="10446.13" cy="7721.8" r="470.66" gradientTransform="translate(-937.68 -754.26) scale(0.11)" gradientUnits="userSpaceOnUse"><stop offset="0" stop-color="#e8352d"/><stop offset="1" stop-color="#c02727"/></radialGradient></defs><title>microsoft-sql</title><path class="cls-1" d="M145.05,18a42.33,42.33,0,0,1-10.89,5.51,36.31,36.31,0,0,1-11.33-9.87C129.36,15.57,138.51,17.75,145.05,18Zm-20.48-5.78a59.26,59.26,0,0,1,15-6.82,29.67,29.67,0,0,0,4.47,9.38A85.47,85.47,0,0,1,124.57,12.19Zm-4.25,2.45c1.63,2.18,3.54,4.93,6.48,6.82l-6.15.42c-1.25-.61-1.9-1.53-5.23-2.11A9,9,0,0,1,120.32,14.64Zm-10.51,4.24c8.57-7.37,19.66-12.49,30.87-17.51A91.49,91.49,0,0,0,153.1,27.47c-3.44-.6-7.06-1.14-10.73-1.68,2.44-.15,5.85.27,8.29,0.12a63.61,63.61,0,0,1-4.57-6.24c-2,1.72-5.88,3.48-9.15,4.47,0.59,0.41,2.76.93,3.35,1.34C129.51,23.9,118.42,22.22,109.82,18.89Z"/><path class="cls-2" d="M117.71,105.32c4.52-5.76,8.41-11.61,10.89-17.67l-13.51,5.67C113.4,97.3,114.7,103,117.71,105.32Zm-16.56,23c6.23-5.62,10.84-11.68,13.29-18.32l-21.17,4.8C93.38,121.16,95.66,125.92,101.15,128.34Zm28-6.76c-5.55-3.65-9.33-7-12-10.69a81.77,81.77,0,0,1-13.29,18.76A159.17,159.17,0,0,0,129.14,121.57Zm15.39-22.41c-0.94,6.14-6.93,15.12-12.23,20.67-5.13-2.7-9.57-6-12.31-10.91C127.74,107.47,137.8,101.92,144.53,99.16ZM143.3,97.8c-6.63,3.63-17.59,8.39-24.51,9.11,3.49-6.33,10.13-14.12,13.62-20.45A25.69,25.69,0,0,0,143.3,97.8Zm1.63-1.85c0.87-4.84,2.51-11.09,1.74-15.38-3.74,1.35-8.68,3.45-12.42,4.8C138.09,91.94,143,95,144.94,95.94Zm1.52,0.87c5.63-2.87,12.45-6.83,18.08-9.71-2.65-3.82-7.7-6.43-13.83-8.51C149.69,84.31,147.48,91.11,146.46,96.82Zm19-12.43a33,33,0,0,0-.87-9.19l-9.91,2.43C159.32,78.92,163.05,81,165.42,84.38Zm-1.25,20.5c0.62-5.53,1.39-10.06,1.14-15.7-5.81,3-12.41,6-18.22,9.05A32.22,32.22,0,0,0,164.17,104.88Zm-30,16.15c7.92-3.09,21.11-9.89,29-13-4.38-.65-11.35-4.21-17.19-8.36C144.64,106.42,138.41,116.63,134.15,121Zm2,0.65c5.38,4.32,15,5,21.89,6.22,2.07-5.71,4-11.2,5-17.45C154.45,114.08,144.68,118,136.12,121.68Zm-12.58,16.9c10.77-2,21.2-4.54,30.66-8.83-6.8-1.31-14-2.35-20.18-6C131.57,129.17,128.15,133.62,123.53,138.59Zm4.85,1.09A205.39,205.39,0,0,0,156.21,131c-1.39,4.24-2.48,8.21-4.74,11.72A122.53,122.53,0,0,1,128.38,139.68Zm-7.19-2c4.8-4.19,9.33-9.84,10.35-15.05-8,2.89-17.58,6.16-26.36,7.74A44.45,44.45,0,0,0,121.19,137.71Zm31.91,7c11.89-26.34,16.47-48.08,13.51-73.18-19.47,6.64-38,12.47-55,22.38a20.9,20.9,0,0,0,3.15,13.83l-21.35,5.56c0.7-9.1,8.5-13.45,18.17-19.38q-3.69,2.15-7.27,4.54C63.46,125.78,119.2,143.56,153.11,144.69Z"/><path class="cls-3" d="M129.31,72.23l8.17-5.51a7.83,7.83,0,0,0-4.85-3.11A29.44,29.44,0,0,1,129.31,72.23Zm-9.56,12.32,10.16-7-1.25-3.93A58.36,58.36,0,0,1,119.75,84.55Zm3.35,1.58a122.89,122.89,0,0,1,20.1-8.56c-0.4-3.41-.47-7.43-2.61-9.82C135.25,73.34,128.44,80.56,123.1,86.14Zm25.43-10.69c5.12-6.43,10.78-13,15.9-19.47,4.87,2.22,8.8,5.65,12.8,10.2Zm-6-8.72,19.61-12.28c-5.37,7.27-11.73,15.2-17.1,22.47A27,27,0,0,0,142.54,66.73Zm-0.76-1.31,8.12-17.23a25.51,25.51,0,0,1,9.8,4.58Zm-7.62-5.13L147.66,47.2l-6.81,17.29A10.94,10.94,0,0,0,134.16,60.29Zm0.11-4.14a81.41,81.41,0,0,0-.44-13.24l11.55,3.26C141.6,49.49,138,52.82,134.27,56.14ZM182.14,65A136.16,136.16,0,0,0,198,43.48a54,54,0,0,1,18.14,15A205.61,205.61,0,0,0,182.14,65ZM167.76,53c9.1-4.47,18.9-7.65,28.87-10.52-5.11,7.81-11.23,15.42-17.21,23.23A35.87,35.87,0,0,0,167.76,53Zm-1.52-1.09c2.79-4.75,5.44-12.42,5.61-18.05a120.25,120.25,0,0,1,22,6.82A139.24,139.24,0,0,0,166.24,51.89Zm-13.62-7a69.83,69.83,0,0,1,17.92-11.56c-1.23,6.12-3,12.06-6.59,17.45A30.1,30.1,0,0,0,152.62,44.91Zm-2.29-1.15-2-14.29a79,79,0,0,1,19.5,2.94A80.1,80.1,0,0,0,150.33,43.76Zm-15.41-4.58,12.91,4.14-1.2-14C142.27,32.09,137.79,34.67,134.92,39.18Zm-6.18-13.35a88.54,88.54,0,0,1,3.51,12,51.11,51.11,0,0,1,12.17-9.31C139.38,26.83,133.93,26.25,128.74,25.83ZM129,34.3a28,28,0,0,0-3.63-9.66,20.64,20.64,0,0,0-7-1.5A51.53,51.53,0,0,1,129,34.3Zm-17.4,59.58-7.31,4.56c2.51-2.67,5.11-5.44,7.51-7.76,27.79-26.76,27.08-50.86,2.17-69-7-5.11-5.67-2.64,1.57-1,42.11,9.75,78.18,6.32,102.69,36.6,1.76,2.17,1.61,2.68-.09,2.79C203.94,61,154.69,71.24,111.62,93.89Z"/><path class="cls-4" d="M79.73,156.69L80,158.26a6.6,6.6,0,0,1-1.33.16,3,3,0,0,1-1.49-.3,1.7,1.7,0,0,1-.74-0.8,6.29,6.29,0,0,1-.22-2.08v-6H74.9v-1.37h1.3v-2.58L78,144.21v3.64h1.78v1.37H78v6.09a3.16,3.16,0,0,0,.09,1,0.76,0.76,0,0,0,.3.34,1.19,1.19,0,0,0,.6.13A5.63,5.63,0,0,0,79.73,156.69Zm-9,1.58v-9H69.15v-1.37h1.56v-1.11a4.86,4.86,0,0,1,.19-1.56,2.26,2.26,0,0,1,.9-1.12,3.24,3.24,0,0,1,1.8-.43,8.45,8.45,0,0,1,1.65.18L75,145.36a5.78,5.78,0,0,0-1-.1,1.53,1.53,0,0,0-1.14.35,1.85,1.85,0,0,0-.34,1.29v1h2v1.37h-2v9H70.71Zm-10.44-5.21a4.43,4.43,0,0,0,.87,3,2.91,2.91,0,0,0,4.39,0A4.56,4.56,0,0,0,66.4,153a4.31,4.31,0,0,0-.88-2.93,2.91,2.91,0,0,0-4.38,0A4.41,4.41,0,0,0,60.27,153.06Zm-1.82,0a5.36,5.36,0,0,1,1.61-4.29,4.85,4.85,0,0,1,3.28-1.16A4.67,4.67,0,0,1,66.86,149a5.35,5.35,0,0,1,1.36,3.89,6.9,6.9,0,0,1-.6,3.17,4.27,4.27,0,0,1-1.76,1.79,5.12,5.12,0,0,1-2.52.64,4.68,4.68,0,0,1-3.54-1.4A5.59,5.59,0,0,1,58.45,153.06Zm-10.1,2.1,1.75-.27a2.44,2.44,0,0,0,.82,1.61,2.85,2.85,0,0,0,1.88.56,2.77,2.77,0,0,0,1.81-.5,1.49,1.49,0,0,0,.59-1.16,1.08,1.08,0,0,0-.52-0.94,7.62,7.62,0,0,0-1.81-.6,16.32,16.32,0,0,1-2.69-.85,2.57,2.57,0,0,1-1.53-2.39,2.66,2.66,0,0,1,.32-1.29,2.83,2.83,0,0,1,.87-1,3.7,3.7,0,0,1,1.12-.52,5.36,5.36,0,0,1,1.53-.21,6.06,6.06,0,0,1,2.15.36,2.92,2.92,0,0,1,1.37,1,3.74,3.74,0,0,1,.61,1.61l-1.73.24a1.91,1.91,0,0,0-.68-1.26,2.49,2.49,0,0,0-1.59-.45,2.88,2.88,0,0,0-1.74.4,1.17,1.17,0,0,0-.52.94,1,1,0,0,0,.22.62,1.57,1.57,0,0,0,.68.47c0.18,0.06.7,0.21,1.56,0.45a21.39,21.39,0,0,1,2.61.82,2.64,2.64,0,0,1,1.17.93,2.58,2.58,0,0,1,.42,1.51,3,3,0,0,1-.52,1.67A3.35,3.35,0,0,1,55,158.08a5.4,5.4,0,0,1-2.2.43,4.9,4.9,0,0,1-3.1-.84A3.91,3.91,0,0,1,48.36,155.16ZM39,153.06a4.43,4.43,0,0,0,.87,3,2.91,2.91,0,0,0,4.39,0,4.56,4.56,0,0,0,.87-3.05,4.31,4.31,0,0,0-.88-2.93,2.91,2.91,0,0,0-4.38,0A4.41,4.41,0,0,0,39,153.06Zm-1.82,0a5.36,5.36,0,0,1,1.61-4.29,4.85,4.85,0,0,1,3.28-1.16A4.67,4.67,0,0,1,45.63,149,5.35,5.35,0,0,1,47,152.91a6.89,6.89,0,0,1-.6,3.17,4.27,4.27,0,0,1-1.76,1.79,5.12,5.12,0,0,1-2.52.64,4.68,4.68,0,0,1-3.54-1.4A5.59,5.59,0,0,1,37.22,153.06Zm-6.05,5.21V147.85h1.59v1.58A4.29,4.29,0,0,1,33.88,148a2,2,0,0,1,1.13-.36,3.46,3.46,0,0,1,1.82.57l-0.61,1.64a2.49,2.49,0,0,0-1.29-.39,1.69,1.69,0,0,0-1,.35,1.89,1.89,0,0,0-.66,1,6.82,6.82,0,0,0-.29,2.06v5.46H31.17Zm-3.23-3.82,1.74,0.23a4.48,4.48,0,0,1-1.46,2.81,4.25,4.25,0,0,1-2.88,1,4.47,4.47,0,0,1-3.44-1.4,5.67,5.67,0,0,1-1.3-4,7.28,7.28,0,0,1,.56-3,3.91,3.91,0,0,1,1.71-1.9,5,5,0,0,1,2.49-.63,4.32,4.32,0,0,1,2.78.86,3.94,3.94,0,0,1,1.39,2.44l-1.72.26a2.87,2.87,0,0,0-.87-1.58,2.26,2.26,0,0,0-1.51-.53,2.74,2.74,0,0,0-2.17,1,4.53,4.53,0,0,0-.83,3,4.69,4.69,0,0,0,.81,3.06,2.62,2.62,0,0,0,2.1,1,2.47,2.47,0,0,0,1.74-.64A3.16,3.16,0,0,0,27.94,154.46Zm-11.26,3.82V147.85h1.77v10.42H16.68Zm0-12.36v-2h1.77v2H16.68ZM0.09,158.28V143.89H3l3.4,10.19c0.31,0.95.55,1.66,0.69,2.13q0.25-.78.77-2.31l3.44-10h2.56v14.39H12v-12l-4.18,12H6.09L1.93,146v12.25H0.09Z"/><path class="cls-4" d="M84,147.15v1.4h0.62a1,1,0,0,0,.63-0.18,0.65,0.65,0,0,0,.21-0.53,0.61,0.61,0,0,0-.23-0.53,1.27,1.27,0,0,0-.72-0.16H84Zm2.32,3.68H85.56l-0.44-1a1.9,1.9,0,0,0-.34-0.55,0.53,0.53,0,0,0-.38-0.19H84v1.75H83.37v-4.21h1.22a1.88,1.88,0,0,1,1.14.3,1,1,0,0,1,.41.85,1.05,1.05,0,0,1-.28.74,1.42,1.42,0,0,1-.78.41,0.77,0.77,0,0,1,.35.24,2.25,2.25,0,0,1,.34.54Zm-4.55-2.07a2.91,2.91,0,1,0,.85-2.07A2.81,2.81,0,0,0,81.77,148.76Zm-0.41,0a3.19,3.19,0,0,1,1-2.35A3.34,3.34,0,1,1,81.36,148.76Z"/><path class="cls-4" d="M253.48,176.24v1h0.43a0.67,0.67,0,0,0,.44-0.12,0.45,0.45,0,0,0,.15-0.37,0.42,0.42,0,0,0-.16-0.37,0.88,0.88,0,0,0-.5-0.11h-0.36Zm1.61,2.55h-0.53l-0.31-.7a1.32,1.32,0,0,0-.24-0.38,0.37,0.37,0,0,0-.27-0.13h-0.26v1.22H253v-2.93h0.84a1.31,1.31,0,0,1,.79.21,0.69,0.69,0,0,1,.28.59,0.73,0.73,0,0,1-.19.51,1,1,0,0,1-.54.28,0.53,0.53,0,0,1,.25.17,1.56,1.56,0,0,1,.24.37Zm-3.16-1.44a2,2,0,1,0,.59-1.44A1.95,1.95,0,0,0,251.94,177.36Zm-0.29,0a2.22,2.22,0,0,1,.68-1.63A2.32,2.32,0,1,1,251.65,177.36Z"/><path class="cls-4" d="M160.42,144.72v-3.57h0.71l0.84,2.53,0.17,0.53,0.19-.57,0.85-2.48h0.64v3.57h-0.46v-3l-1,3h-0.43l-1-3v3h-0.46Zm-2.12,0v-3.15h-1.18v-0.42H160v0.42h-1.18v3.15H158.3Z"/><path class="cls-4" d="M249.27,179.72a5.41,5.41,0,0,0-3.17-.82,5.2,5.2,0,0,0-4.42,2.5,11.31,11.31,0,0,0-1.74,6.59v13.17h-4.61v-26h4.61v5.29H240q2-5.74,6.82-5.74a6.58,6.58,0,0,1,2.42.35v4.66Zm-24.7,5.92a8.22,8.22,0,0,0-1.67-5.45,5.77,5.77,0,0,0-4.63-1.93,6.44,6.44,0,0,0-4.76,2,9.5,9.5,0,0,0-2.53,5.34h13.59Zm4.61,3.69H211a9.37,9.37,0,0,0,2.28,6.44,8,8,0,0,0,6,2.26,12.9,12.9,0,0,0,8-2.79v4.11q-3.43,2.43-9.1,2.42t-8.81-3.57q-3.17-3.58-3.16-9.92a14.23,14.23,0,0,1,3.47-9.86,11.1,11.1,0,0,1,8.62-3.88,10,10,0,0,1,8,3.28q2.87,3.29,2.87,9.18v2.33ZM204,175.16l-10.3,26H189l-9.79-26h5l6.35,18.58a16.49,16.49,0,0,1,.92,3.74h0.12a17.2,17.2,0,0,1,.82-3.64l6.66-18.67H204Zm-27.5,4.56a5.41,5.41,0,0,0-3.17-.82,5.2,5.2,0,0,0-4.42,2.5,11.31,11.31,0,0,0-1.74,6.59v13.17h-4.61v-26h4.61v5.29h0.1q2-5.74,6.82-5.74a6.58,6.58,0,0,1,2.42.35v4.66Zm-24.7,5.92a8.22,8.22,0,0,0-1.67-5.45,5.77,5.77,0,0,0-4.63-1.93,6.44,6.44,0,0,0-4.76,2,9.5,9.5,0,0,0-2.53,5.34h13.59Zm4.61,3.69h-18.2a9.37,9.37,0,0,0,2.28,6.44,8,8,0,0,0,6,2.26,12.9,12.9,0,0,0,8-2.79v4.11q-3.43,2.43-9.1,2.42t-8.81-3.57q-3.17-3.58-3.16-9.92a14.23,14.23,0,0,1,3.47-9.86,11.1,11.1,0,0,1,8.62-3.88,10,10,0,0,1,8,3.28q2.87,3.29,2.87,9.18v2.33Zm-50.1,5a12.91,12.91,0,0,0,4.47,2.4,16.69,16.69,0,0,0,5.31.94q7.66,0,7.67-5.45a4.79,4.79,0,0,0-.83-2.75,7.89,7.89,0,0,0-2.26-2.17,59.61,59.61,0,0,0-5.39-2.89q-5.48-2.72-7.22-5.07a8.73,8.73,0,0,1-1.74-5.35,8.43,8.43,0,0,1,3.64-7.19,15.2,15.2,0,0,1,9.2-2.66c3.62,0,6.28.43,8,1.32v5.12a14.32,14.32,0,0,0-8.33-2.28,9.62,9.62,0,0,0-5.45,1.4,4.42,4.42,0,0,0-2.1,3.89,4.77,4.77,0,0,0,1.46,3.6A29.29,29.29,0,0,0,119,181q5.36,2.56,7.5,5.13a8.75,8.75,0,0,1,2.14,5.76,8.58,8.58,0,0,1-3.48,7.36q-3.48,2.57-9.67,2.56a25.07,25.07,0,0,1-5-.6,11.93,11.93,0,0,1-4.2-1.49v-5.36Zm-18.06,6.85H69V164.74h4.7V197H88.24v4.17ZM32.34,183q0,6.61,3.38,10.6a11,11,0,0,0,8.81,4,11.52,11.52,0,0,0,9.16-3.82Q57,189.95,57,183.09q0-7.06-3.25-10.89a11.09,11.09,0,0,0-8.93-3.84,11.31,11.31,0,0,0-9,4Q32.35,176.45,32.34,183ZM63,210.63a13.72,13.72,0,0,1-4.11.54,13.2,13.2,0,0,1-6.41-1.65q-3-1.65-8.36-7.74a15.33,15.33,0,0,1-12-5.19,19,19,0,0,1-4.71-13.2q0-8.86,4.78-14.07t13.05-5.19a15.62,15.62,0,0,1,12.1,5.1Q62,174.33,62,182.52a21.6,21.6,0,0,1-3.28,12.2,14.81,14.81,0,0,1-9.29,6.37,23.24,23.24,0,0,0,5.18,4.5,10.37,10.37,0,0,0,8.44.58v4.45ZM0.26,194.33a12.91,12.91,0,0,0,4.47,2.4,16.69,16.69,0,0,0,5.31.94q7.66,0,7.67-5.45a4.79,4.79,0,0,0-.83-2.75,7.89,7.89,0,0,0-2.26-2.17,59.62,59.62,0,0,0-5.39-2.89Q3.77,181.68,2,179.34A8.73,8.73,0,0,1,.29,174a8.43,8.43,0,0,1,3.64-7.19,15.2,15.2,0,0,1,9.2-2.66c3.62,0,6.28.43,8,1.32v5.12a14.32,14.32,0,0,0-8.33-2.28,9.62,9.62,0,0,0-5.45,1.4,4.42,4.42,0,0,0-2.1,3.89,4.77,4.77,0,0,0,1.46,3.6A29.29,29.29,0,0,0,13,181q5.36,2.56,7.5,5.13a8.75,8.75,0,0,1,2.14,5.76,8.58,8.58,0,0,1-3.48,7.36q-3.48,2.57-9.67,2.56a25.07,25.07,0,0,1-5-.6,11.94,11.94,0,0,1-4.2-1.49v-5.36Z"/></svg>